/* XPM */
static char *exit1743948702[] = {
/* columns rows colors chars-per-pixel */
"64 64 180 2 ",
"   c #010007",
".  c #00000A",
"X  c #060115",
"o  c #070219",
"O  c #0B051A",
"+  c #140C1E",
"@  c #1C121A",
"#  c #150D20",
"$  c #2E1C25",
"%  c #301F26",
"&  c #352127",
"*  c #33242C",
"=  c #3A252A",
"-  c #3E282C",
";  c #2C2331",
":  c #3C2E35",
">  c #342B39",
",  c #372932",
"<  c #3F3037",
"1  c #3B323E",
"2  c #422A2E",
"3  c #432D31",
"4  c #442B3C",
"5  c #452536",
"6  c #423136",
"7  c #44353A",
"8  c #573E3B",
"9  c #5B423F",
"0  c #69463C",
"q  c #67443B",
"w  c #3E3540",
"e  c #3F3A4A",
"r  c #413641",
"t  c #443B44",
"y  c #423D4D",
"u  c #493F48",
"i  c #5D4D4E",
"p  c #5B4340",
"a  c #464050",
"s  c #484353",
"d  c #5E4E50",
"f  c #5D5258",
"g  c #6B4C42",
"h  c #6D5853",
"j  c #735B54",
"k  c #68534F",
"l  c #73615F",
"z  c #645C65",
"x  c #6E6264",
"c  c #686068",
"v  c #716566",
"b  c #736869",
"n  c #8D5F49",
"m  c #875945",
"M  c #8F604A",
"N  c #92624B",
"B  c #AF7554",
"V  c #B07655",
"C  c #B27856",
"Z  c #B57C5A",
"A  c #BD7F59",
"S  c #9C7E6B",
"D  c #947868",
"F  c #8C7F7B",
"G  c #946C6A",
"H  c #BD6871",
"J  c #BD747E",
"K  c #BE805A",
"L  c #BB8562",
"P  c #BB9375",
"I  c #BC997E",
"U  c #BA977C",
"Y  c #C1835C",
"T  c #C58B66",
"R  c #DA9364",
"E  c #C1997B",
"W  c #CD9169",
"Q  c #E79C69",
"!  c #E99E6A",
"~  c #EDA16C",
"^  c #F2A46E",
"/  c #EBA674",
"(  c #EEA876",
")  c #EDAC7C",
"_  c #F2AC78",
"`  c #F7B17C",
"'  c #7B7782",
"]  c #BE7C86",
"[  c #C07D85",
"{  c #C17F88",
"}  c #9A8C86",
"|  c #9D8F89",
" . c #938681",
".. c #A1938D",
"X. c #BD9C82",
"o. c #BE9482",
"O. c #A59892",
"+. c #BE8585",
"@. c #BBAB9E",
"#. c #A19EA6",
"$. c #A7A3A9",
"%. c #BEAEA2",
"&. c #BFB0A4",
"*. c #C08B8F",
"=. c #F78E93",
"-. c #FC9197",
";. c #FF959A",
":. c #CAA485",
">. c #C1A289",
",. c #CCA686",
"<. c #C1AC9C",
"1. c #C9AB95",
"2. c #D0AF92",
"3. c #D3AD8D",
"4. c #E9AF82",
"5. c #ECB589",
"6. c #F1B383",
"7. c #F3BA8A",
"8. c #F0B788",
"9. c #EABF97",
"0. c #E7BD97",
"q. c #F2BF91",
"w. c #FA9EA3",
"e. c #C2B2A5",
"r. c #CFBAA7",
"t. c #C6B6A8",
"y. c #CDBCAD",
"u. c #C8B2A0",
"i. c #D1BFAE",
"p. c #CFBFB1",
"a. c #FDA1A6",
"s. c #FDA6AB",
"d. c #FEACAA",
"f. c #F9AFB0",
"g. c #FBB5B3",
"h. c #FCBBB4",
"j. c #FFB3AB",
"k. c #F5C396",
"l. c #F5C499",
"z. c #F6C99E",
"x. c #FDCA9A",
"c. c #FAC697",
"v. c #EAC197",
"b. c #D3C2B2",
"n. c #D7C1AC",
"m. c #F6CCA3",
"M. c #FACDA2",
"N. c #F7CEA9",
"B. c #FCC4A3",
"V. c #F7D1AA",
"C. c #FBD3AB",
"Z. c #FED3A6",
"A. c #F9C5BC",
"S. c #EED4BA",
"D. c #F7D6B4",
"F. c #FDDAB4",
"G. c #F8D7B8",
"H. c #FADCBB",
"J. c #F6D8BB",
"K. c #EDCCAA",
"L. c #CBCACE",
"P. c #C8C7CC",
"I. c #ECDAC5",
"U. c #EFDEC9",
"Y. c #FAD7C7",
"T. c #F8DDC4",
"R. c #F0DEC8",
"E. c #FCDBCA",
"W. c #F6DFC4",
"Q. c #F9E1C6",
"!. c #FAE5CD",
"~. c #FEE9CD",
"^. c #F4E2CB",
"/. c #F9E7D1",
"(. c #FDEBD3",
"). c #FFF1D7",
"_. c #FFF2D9",
"`. c #DEDDE0",
"'. c white",
"]. c #3E8948",
/* pixels */
"].].].].].].].].].].].].].].].].].].].].].].].].].].].].].].].].].].].].].].].].].].].].].].].].].].].].].].].].].].].].].].].].",
"].].].].].].].].].].].].].].].].].].].].].].].].].].].].].].].].].].].].].].].].].].].].].].].].].].].].].].].].].].].].].].].].",
"].].].].].].].].].].].].].].].].].].].].].].].].].].].].].].].].].].].].].].].].].].].].].].].].].].].].].].].].].].].].].].].].",
"].].].].].].].].].].].].].].].].].].].].].].].].].].].].].].].].].].].].].].].].].].].].].].].].].].].].].].].].].].].].].].].].",
"].].].].].].].].].].].].].].].].].].].].].].].].].].].].].].].].].].].].].].].].].].].].].].].].].].].].].].].].].].].].].].].].",
"].].].].].].].].].].].].].].].].].].].].].].].].].].].].].].].].].].].].].].].].].].].].].].].].].].].].].].].].].].].].].].].].",
"].].].].].].].].].].].].].].].].].].].].].].].].].].].].].].].].].].].].].].].].].].].].].].].].].].].].].].].].].].].].].].].].",
"].].].].].].].].].].].].].].].].].].].].].].].].].].].].].].].].].].].].].].].].].].].].].].].].].].].].].].].].].].].].].].].].",
"].].].].].].].].].].].].].].].].].].].].].].].].].].].].].].].].].].].].].].].].].].].].].].].].].].].].].].].].].].].].].].].].",
"].].].].].].].].].].].].].].].].].].].].].].].].].].].].].].].].].].].].].].].].].].].].].].].].].].].].].].].].].].].].].].].].",
"].].].].].].].].].].].].].].].].].].].].].].].].].].].].].].].].].].].].].].].].].].].].].].].].].].].].].].].].].].].].].].].].",
"].].].].].].].].].].].].].].].].].].].].].].].].].].].].].].].].].].].].].].].].].].].].].].].].].].].].].].].].].].].].].].].].",
"].].].].].].].].].].].].].].].].X X ].].].].].].].].].].X X ].].].].].].].].].].].].].].].].].].].].].].].].].].].].].].].].].].",
"].].].].].].].].].].].].].].].].y y ].].].].].].].].].].y y ].].].].].].].].].].].].].].].].].].].].].].].].].].].].].].].].].].",
"].].].].].].].].].].].].].].X a #.#.y . ].].].].].].. y #.#.s X ].].].].].].].].].].].].].].].].].].].].].].].].].].].].].].].].",
"].].].].].].].].].].].].].].X s P.`.' y ].].].].].].e ' `.P.s . ].].].].].].].].].].].].].].].].].].].].].].].].].].].].].].].].",
"].].].].].].].].].].].].].].. s P.'.`.#.y X . X X e #.`.'.P.s X X X ].].].].].].].].].].].].].].].].].].].].].].].].].].].].].].",
"].].].].].].].].].].].].].].1 c $.P.L.$.z r t r r z $.P.P.$.c r t r ].].].].].].].].].].].].].].].].].].].].].].].].].].].].].].",
"].].].].].].].].].].].].X 1 | O.c y y z ..e.&.&.e...z y s z O.t.e.} 1 . ].].].].].].].].].].].].].].].].].].].].].].].].].].].].",
"].].].].].].].].].].].].1 v n.u.r O ; v b.).).(.(.b.x ; O r e.).(.r.v w ].].].].].].].].].].].].].].].].].].].].].].].].].].].].",
"].].].].].].].].].].X r } n.D.>.: ; F b.U.(.(.(.(.R.i.F ; r &.~.F.K.r.| r X ].].].].].].].].].].].].].].].].].].].].].].].].].].",
"].].].].].].].].].].X u e.E.2.S d b b._.(.!.!.!.(.(._.e.r w &.~.F.F.Q.@.t X ].].].].].].].].].].].].].].].].].].].].].].].].].].",
"].].].].].].].].].].X u t.b.l d | b.R.(.(.!././.(.(.).&.w w &.(.~.H.F.>.7 o ].].].].].].].].].].].].].].].].].].].].].].].].].].",
"].].].].].].].].].].X u t.e.r r e.^.i.y.I././.I.y.y.U.y.b f | p.R.~.F.E 7 o ].].].].].].].].].].].].].].].].].].].].].].].].].].",
"].].].].].].].].].].X u t.t.t r e.b.b x y.(.(.y.x x y.U.b.| f x b.~.F.>.7 o X o X X X X O X X X ].].].].].].].].].].].].].].].].",
"].].].].].].].].].].X t .. .> t e.e.1 1 @._.).@.1 1 %.(._.b.h i } <.X.D = + , 7 t t u r t t u 7 ].].].].].].].].].].].].].].].].",
"].].].].].].].].].].].].t > # u e.%.w 1 %.(.(.@.> 1 @.(.).S.@.L d 7 < ; + * D X.<.%.%.%.e.e.e.} 1 . ].].].].].].].].].].].].].].",
"].].].].].].].].].].].].o # > b b.b.x x y.(.(.y.x x y.(./.Q.D.,.h : < < 6 l 2.H.~.(.(.(.(.(.(.i.b w ].].].].].].].].].].].].].].",
"].].].].].].].].].].].].X >  .b.U.U.p.y.I././.I.y.y.I././.Q.C.v.:.I U I I 2.S.Q.(./.(./.(.(.(.I.y.} w X ].].].].].].].].].].].].",
"].].].].].].].].].].].].X t <.E.E.Y.E.Y.Y.Y.!./.(.(.(./.Q.H.V.M.M.M.M.M.M.Z.H.Q.!./.!./.!./.!.(.).e.t X ].].].].].].].].].].].].",
"].].].].].].].].].].].].X r *.h.g.g.h.g.g.A.Y.^.(.(./.Q.D.N.M.M.M.M.M.M.M.M.V.D.E./././.!././.(.(.e.u X X X ].].].].].].].].].].",
"].].].].].].].].].].].].O 5 J w.a.a.w.w.w.f.Y.Y.W.Q.Q.H.C.9.:.:.v.m.z.z.z.z.l.V.H.W.W.W.!././.~.~.<.t # , 7 ].].].].].].].].].].",
"].].].].].].].].].].].].o 5 H -.a.w.=.=.;.s.f.h.N.C.C.C.Z.:.k k >.M.m.z.z.z.z.m.N.V.V.D.Q././.!.F.X.7 , D S 3 X ].].].].].].].].",
"].].].].].].].].].].].].X 5 H ;.a.a.-.-.a.s.s.d.B.v.,.I I S 8 g E M.M.m.m.V.V.m.m.l.l.V.H.Q.Q.H.C.I < 7 E ,.j : ].].].].].].].].",
"].].].].].].].].].].].].o 4 [ w.d.s.a.a.s.f.s.j.B.3.h < < 9 N T 5.M.z.m.H.^.Q.H.N.z.z.m.V.V.V.V.Z.I < : K 4.:.S 7 o ].].].].].].",
"].].].].].].].].].].].].X 4 G *.] ] ] ] ] ] ] +...L 9 & & q T 6.z.M.V.D.Q././.Q.D.m.m.z.z.z.z.z.l.P 6 $ m T 8.E 6 X ].].].].].].",
"].].].].].].].].].].].].].].4 4 4 4 4 4 4 4 4 4 : p N C B L 4.l.l.V.H.Q.!././.!.Q.J.V.z.z.z.z.l.` K 3 + $ g W L 3 o ].].].].].].",
"].].].].].].].].].].].].].].X o X o o @ % = = = * q Y ^ _ 6.k.m.M.V.H.!./././././.W.m.k.z.z.l.8./ B 2 o X = N m * O ].].].].].].",
"].].].].].].].].].].].].].].].].].].o & m C C C B A R ( 7.c.z.m.z.m.M.D.Q./././.(.J.5.) k.k.) / ~ V : X ].].- & @ O ].].].].].].",
"].].].].].].].].].].].].].].].].].].o 3 C ^ ! ~ ! ! ! ( 8.k.q.k.k.v.v.z.V.J.J.J.J.m.) / 8.8./ Q ~ V - o ].].o O O O ].].].].].].",
"].].].].].].].].].].].].].].].].].].o 2 C ~ ~ Q ~ ~ ~ / / ) / / / / / ( ) 6.6.6.6.) / ~ / / Q ~ ^ C 3 O ].].].].].].].].].].].].",
"].].].].].].].].].].].].].].].].].].o 3 Z ( ~ R K V B V V K R Q Q Q ~ R A B B B B B B K R Q Q R Y n - o ].].].].].].].].].].].].",
"].].].].].].].].].].].].].].].].].].o 7 P 7._ K 0 - - - = 0 K Q ~ ~ ~ K 0 - - - - = - 0 K ~ ~ K q = ].].].].].].].].].].].].].].",
"].].].].].].].].].].].].].].].].].].X 7 X.c._ C - X o X X - C ~ ~ R K M * X o O o X X - C ~ ~ B = o ].].].].].].].].].].].].].].",
"].].].].].].].].].].].].].].].].].].o 7 X.c._ V - X ].].X 2 V ~ ~ K q * ].].].].].].X - V ~ ~ B - o ].].].].].].].].].].].].].].",
"].].].].].].].].].].].].].].].].].].X 7 X.x.` V 2 o ].].X 2 C ^ ~ B - X ].].].].].].o 2 C ^ ^ C 3 o ].].].].].].].].].].].].].].",
"].].].].].].].].].].].].].].].].].].X 7 E x.` C 2 X ].].X 2 C ^ ^ C - X ].].].].].].o 2 C ^ ^ C 2 o ].].].].].].].].].].].].].].",
"].].].].].].].].].].].].].].].].].].X : S I K n = X ].].X = M Z C M = X   ].].].].. X = M Z Z M = X ].].].].].].].].].].].].].].",
"].].].].].].].].].].].].].].].].].].].@ < 7 6 = @ ].].].].@ = 2 2 = @ ].].].].].].].].@ = 2 2 = @ ].].].].].].].].].].].].].].].",
"].].].].].].].].].].].].].].].].].].].  . o O X ].].].].].].X o X X ].].].].].].].].].].X X X X ].].].].].].].].].].].].].].].].",
"].].].].].].].].].].].].].].].].].].].].    .   ].].].].].].. .     ].].].].].].].].].].    . . ].].].].].].].].].].].].].].].].",
"].].].].].].].].].].].].].].].].].].].].].].].].].].].].].].].].].].].].].].].].].].].].].].].].].].].].].].].].].].].].].].].].",
"].].].].].].].].].].].].].].].].].].].].].].].].].].].].].].].].].].].].].].].].].].].].].].].].].].].].].].].].].].].].].].].].",
"].].].].].].].].].].].].].].].].].].].].].].].].].].].].].].].].].].].].].].].].].].].].].].].].].].].].].].].].].].].].].].].].",
"].].].].].].].].].].].].].].].].].].].].].].].].].].].].].].].].].].].].].].].].].].].].].].].].].].].].].].].].].].].].].].].].",
"].].].].].].].].].].].].].].].].].].].].].].].].].].].].].].].].].].].].].].].].].].].].].].].].].].].].].].].].].].].].].].].].",
"].].].].].].].].].].].].].].].].].].].].].].].].].].].].].].].].].].].].].].].].].].].].].].].].].].].].].].].].].].].].].].].].",
"].].].].].].].].].].].].].].].].].].].].].].].].].].].].].].].].].].].].].].].].].].].].].].].].].].].].].].].].].].].].].].].].",
"].].].].].].].].].].].].].].].].].].].].].].].].].].].].].].].].].].].].].].].].].].].].].].].].].].].].].].].].].].].].].].].].",
"].].].].].].].].].].].].].].].].].].].].].].].].].].].].].].].].].].].].].].].].].].].].].].].].].].].].].].].].].].].].].].].].",
"].].].].].].].].].].].].].].].].].].].].].].].].].].].].].].].].].].].].].].].].].].].].].].].].].].].].].].].].].].].].].].].].",
"].].].].].].].].].].].].].].].].].].].].].].].].].].].].].].].].].].].].].].].].].].].].].].].].].].].].].].].].].].].].].].].].",
"].].].].].].].].].].].].].].].].].].].].].].].].].].].].].].].].].].].].].].].].].].].].].].].].].].].].].].].].].].].].].].].].",
"].].].].].].].].].].].].].].].].].].].].].].].].].].].].].].].].].].].].].].].].].].].].].].].].].].].].].].].].].].].].].].].]."
};
