/* XPM */
static char *wall1743948703[] = {
/* columns rows colors chars-per-pixel */
"64 64 81 1 ",
"  c #153D3D",
". c #203D3F",
"X c #15413E",
"o c #1A443F",
"O c #1A493F",
"+ c #1E4B40",
"@ c #1F5341",
"# c #224E40",
"$ c #284F41",
"% c #354441",
"& c #3B4642",
"* c #354A42",
"= c #3A4A42",
"- c #225341",
"; c #285141",
": c #265C42",
"> c #285F42",
", c #3C5347",
"< c #2A6443",
"1 c #2C6844",
"2 c #306F45",
"3 c #327345",
"4 c #357846",
"5 c #397F47",
"6 c #404742",
"7 c #424A44",
"8 c #465349",
"9 c #49554A",
"0 c #5E5246",
"q c #605246",
"w c #625548",
"e c #675E4D",
"r c #6A5F4E",
"t c #725847",
"y c #755A48",
"u c #785B49",
"i c #6A604E",
"p c #706954",
"a c #8E5F4A",
"s c #8F604A",
"d c #92624C",
"f c #9D654C",
"g c #996B51",
"h c #8C7A5C",
"j c #A1674D",
"k c #AF6A4E",
"l c #B26C4F",
"z c #B96E4F",
"x c #A46F52",
"c c #B66E50",
"v c #BB6F50",
"b c #A67053",
"n c #AA7355",
"m c #BD7252",
"M c #C07352",
"N c #C27956",
"B c #C97C57",
"V c #C47C58",
"C c #C97F59",
"Z c #3A8147",
"A c #3F8B48",
"S c #AB815F",
"D c #B28C65",
"F c #BD8F67",
"G c #BD9067",
"H c #BF9269",
"J c #CB875F",
"K c #CD885F",
"L c #D1895F",
"P c #CB8D63",
"I c #D28E63",
"U c #C29369",
"Y c #D39064",
"T c #D39769",
"R c #D5986A",
"E c #DC9B6B",
"W c #E19E6D",
"Q c #DBA170",
"! c #E4A672",
"~ c #E6A873",
"^ c #E9A973",
/* pixels */
"22ZAAZ3<::<<:-O=yu*+@<1:+=yy*+@><11:+*tddy=+ %yu=+:3ZZ1:11ZAAZ32",
"::3ZZ3<:@-:::-X7fjq*#@@#$qjj0*#--@-#*0fMvf0&%0xd6 @143:-:1ZAZ3::",
"##:1<<<-OO-::-X=dcjy*+ %yfccft%++ +%yfcvvcfdsfcs%+@:1:++-<ZZ2:#+",
"+o#-::-$=*;---*0fvMf0&%0fmNNmf0&%&%0fmNVVNvvmmNb0*;@-#*=$:43:+++",
":#o#--O*uu*XX*tfkvvnfsdfkNYYNcfddddfkNIREINccMIPxt%XX*yu*+::#.+:",
"2:#o#;*qjf0&&0fmNVVmmvvvNPEEPmvvvvvvNPE^~EPMNPQEIxq%%0jf0*;#++:3",
"Z3:+O=tjllfssflNIEEINczMIE!!EINcvccNIE!~!!EERW!!EPxasfkcfy*O#:3Z",
"A52-o6dmmmNCVVNJE~~EPNNPE~!~~EPNNNNPE~!~!!!!!!!!~EPBCBNNMd7X-1ZA",
"AZ1@o6dmzmYEEEEEW~!!ERREW!!!!!ERERRE!!!!!!!!!!!!!!EEEEEIBd6o@15A",
"Z31-X&dmNPE~~!!!!!!!!~~!~!!!!!~!!~~~!!!!!!!!!!!!!!!^!^!WKg=X@<4Z",
"2<:@X&aNIE!~!~~!!!!!~!~!!!!!!!!!!~~!!!!!!!!!!!!!!!!!!!!!WS8XO<<1",
"<:-$*0fBE~!!!!!!!!!!!!!!!!!!!!!!!!!!!!!!!!!!!!!!!!!!!!!^^Ge%--:<",
":-+*yfkNE~!!!!!!!!!!!!!!!!!!!!!!!!!!!!!!!!!!!!!!!!!!!!!!~Tnt*O-<",
"@-*0fMNJE~!!!!!!!!!!!!!!!!!!!!!!!!!!!!!!!!!!!!!!!!!!!!!!!ELxw*-O",
"X*tflNIEQ!!!!!!!!!!!!!!!!!!!!!!!!!!!!!!!!!!!!!!!!!!!!!!!!!WPxt*O",
"%qjmNPE~!!!!!!!!!!!!!!!!!!!!!!!!!!!!!!!!!!!!!!!!!!!!!!!!!!~WLxw%",
"yjcmTE~~!!!!!!!!!!!!!!!!!!!!!!!!!!!!!!!!!!!!!!!!!!!!!!!!!!~!EPny",
"ujlBYE!~!!!!!!!!!!!!!!!!!!!!!!!!!!!!!!!!!!!!!!!!!!!!!!!!!!!~^Rnu",
"*0fMNPE~!!!!!!!!!!!!!!!!!!!!!!!!!!!!!!!!!!!!!!!!!!!!!!!!!!!~^Ur=",
"+*tflNPE!!!!!!!!!!!!!!!!!!!!!!!!!!!!!!!!!!!!!!!!!!!!!!!!!!!EUh,O",
"@+*0fmNJE!!!!!!!!!!!!!!!!!!!!!!!W!!!!!!!!!!!!!!!!!!!!!!!~~^Hp,;-",
"<++&svcNE!~!!!!!!!!!!!!!!!!!!!!!!!!!!!!!!!!!!!!!!!!!!!!!!~^D8 O<",
"<@ &dvvNR^!!!!!!!!!!!!!!!!!!!!!!!!!!!!!!!!!!!!!!!!!!!!!!!~^D8X-1",
"<@+&dvvNR!!!!!!!!!!!!!!!!Q!!!!!!!!!!!!!!!!!!!!!!!!!!!!!!!~^D8OO1",
"<-+%dmcNR~!!!!!!!!!!!!!!!!!!!!!!!!!!!!!!!!!!!!!W!!!!!!!!!~^D8XO<",
"@-=0fmNPE~~!!!!!!!!!!!!!!!!!!!!!!!!!!!!!!!!!!!!!!~W!!!!!!~^Gi*;-",
"+=yjkmTW!!!!!!!!!!!!!!!!!!!!!!!!!!!!!!!!!!!!!!!!!!!!!!!!!!~Tny=O",
" &yfcNIQW!!!!!!!!!!!!!!!!!!!!!!!!!!!!!!!!!!!!!!!!!!!!!!!!!~Tny% ",
" .%0fmmPE~~!!!!!!!!!!!W!!!!!!!!!!!!!!!!!!!!!!!!!!!!!!!!!!!^Gi%  ",
"+  &dmmmR~!!!!!!!!!!!!!!!!!!!!!!!!!!!!!!!!!!!!!!!!!!!!!!!^^D9  #",
"-++&dvvVR~!!!!!!!!!!!!!!!!!!!!!!!!!!!!!!!!!!!!!!!!!!!!!!!^^D9X#;",
">- &svvNE!~!!!!!!!!!!!!!!!!!!!!!!!!!!!!!!!!!!!!!!!!!!!!!!^^D9X->",
"<@X7smmmE!!!!!!!!!!!!!!!!!!!!!!!!!!!!!!!!!!!!!!!!!!!!!!!!!^D9X@<",
"<-o&smcVE~!!!!!!!!!!!!!!!!!!!!!!!!!!!!!!!!!!!!!!!!!!!!!!!!^D9o@1",
"1-X7dmzVR!!!!!!!!!!!!!!!!!!!!!!!!!!!!!!!!!!!!!!!!!!!!!!!!~^D9X@1",
"<@X=smzVE!!!!!!!!!!!!!!Q!!!!!!!!!!!!!!!!!!!!!!!!!!!!!!!!!~^D9X@<",
":-X&dmzVR~!!!!!!!!!!!!!!!!!!!!!!!!!!!!!!!!!!!!!!!!!!!!!!!~^D9XO<",
"--*qfmmPE!!!!!!!!!!!!!!!!!!!!!!!!!!!!!!!!!!Q!!!!!!!!!!!!!!^Ft*:O",
"O*yfkmYEW!!!!!!!!!!!!!!!!!!!!!!!!!!!!!!!!!!!!!!!!!!!!!!!!!~Tbt*O",
"*qfMVKE~^!!!!!!!!!!!!!!!!!!!!!!!!!!!!!!!!!!!!!!!!!!!!!!!!!!WLbq*",
"ujlVYE!~!!!!!!!!!!!!!!!!!!!Q!!!!!!!!!!!!!!!!!!!!!!!!!!!!!!!!WPny",
"yjlmYQ!~!!!!!!!!!!!!!!!!!!!!!!!!!!!!!!!!!!!!!!!!!!!!!!!!!!!!~Tny",
"=0fmNPE!!!!!!!!!!!!!!!!!!!!!!!!!!!!!!!!!!!!!!!!!!!!!!!!!!!!~^Fi*",
"X=smzNT~!!!!!!!!!!!!!!!!!!!!!!!!!!!!!!!!!!!!!!!!!!!!!!!!!!!^^D8X",
"+=smzNE!!!!!!!!!!!!!!!!!!!!!!!!!!!!!Q!!!!!!!!!!!!!!!!!!!!!!^^D8X",
"%0fmNJE!!!!!!!!!!!!!!!!!!!!!!!!!!!!!!!!!!!!!!!!!!!W!!!!!!!!^^Fi*",
"tfkmIE!!!!!!!!!!!!!!!!!!!!!!!!!!!!!!!!!!!!!!!!!!!!!!!!!!!!!!^Tby",
"txcBIE!!!!!!^Q!!!!!!!!!!!!!!!!!!!!!!!!!!!!!!!!!!!!!~!!!!!!!!^Rnt",
"%qfNNJE~!!!!!!!!!!!!!!!!!!!!!!!!!!!!!!!!!!!!!!!!!!!!!!!!!!!^^Ui*",
" *tflNIE!!!!!!!!!!!!!!!!!!!!!!!!!!!!!!!!!!!!!!!!!!!!!!!!!!^QUh8X",
"@$*0fmNPE!!!!!!!!!!!!!!!!!!!!!!!!!!!!!!!!!!!!!!!!!!!!!!!!^^Up,--",
":@+*tfkNE!!!!!!!!!!!!!!!!!!!!!!!!!!!!!!!!!!!!!!!!!!!!!!!!QUh,O->",
"1:--*0fBE~~!!!!!!!!!!!!!!!!!!!!!!!!!!!!!!!!!!!!!!!!!!!!!^Gp,;-:<",
"1<<@X&dNIE!!!!!!!!!!!!!!!!!!!!!!!!!!!!!!!!!!!!!!!!~!!!!^^D8XO<<2",
"Z3<@X&dMNPE~^!!!!!!!!!!!!!!!!!!!!!!!!!!!!!!!!!!!!!!!!!~!^D8XO<3Z",
"AZ1-o&dmzNIEEE!~!!!!!!!~!!!!!!!!!!!!!!!!!!!!!!!!!!EEEE!!WS8X:1ZA",
"AZ1#o=dmzvNVVJW!~!!!!~!~!!!!!!!!!!!!!!!!!!!!!!!~!EKNJKEWLx6X-1ZA",
"Z4:#o=uflcfasxPW!~~!EEEEEE!~!!EEEEEEEEQ~!!!!~!!!WKxsabPLbt*O#>3Z",
"3:++#;*qjj0%&0xLW~^EJBBNVJE~~EKBBVVVVKE^~!!!!!~WLb0&%qnbq*;-O+>3",
":#oO:-O*yy=XX*ybPTUSgsafkNYEEPxasssfkNYE!!EEEEEJbt*XX*yu*O>>+o+>",
"O++#::@;==;-@-*wbni8=&&0fMNVCbw&&&&0fmNKWWKBBNJb0*#-O;**$>34>+o#",
"++:21<:-OO-::@X%yy=XoXX%tflzft*Xo X*tflNYPbssfld=OO>1>#O;15Z3>++",
"::35Z4<:--:::-o.%=;--@@-*0jf0*---@@-*0fMBb0&&0fd6X:143>#:<5AZ3::",
"22ZAAZ1<:<<<:-#  o-:::1:+=uy=O-:<11:O*tfdt*XX*uu=O>2ZZ1><2ZAA522"
};
